<svg width="200" height="200" viewBox="0 0 200 200" fill="none" xmlns="http://www.w3.org/2000/svg">
<g clip-path="url(#clip0_599_2)">
<path d="M162.5 50V12.5C162.5 5.59766 156.902 0 150 0H12.5C5.59766 0 0 5.59766 0 12.5V50C0 56.9023 5.59766 62.5 12.5 62.5H150C156.902 62.5 162.5 56.9023 162.5 50ZM175 25V75C175 81.9023 169.402 87.5 162.5 87.5H100C86.1914 87.5 75 98.6914 75 112.5V125C68.0977 125 62.5 130.598 62.5 137.5V187.5C62.5 194.402 68.0977 200 75 200H100C106.902 200 112.5 194.402 112.5 187.5V137.5C112.5 130.598 106.902 125 100 125V112.5H162.5C183.211 112.5 200 95.7109 200 75V50C200 36.1914 188.809 25 175 25Z" fill="black"/>
</g>
<defs>
<clipPath id="clip0_599_2">
<rect width="200" height="200" fill="white"/>
</clipPath>
</defs>
</svg>
